<?xml version="1.0" encoding="utf-8"?>
<!-- Generator: Adobe Illustrator 18.1.0, SVG Export Plug-In . SVG Version: 6.00 Build 0)  -->
<!DOCTYPE svg PUBLIC "-//W3C//DTD SVG 1.1//EN" "http://www.w3.org/Graphics/SVG/1.1/DTD/svg11.dtd">
<svg version="1.1" id="Layer_1" xmlns="http://www.w3.org/2000/svg" xmlns:xlink="http://www.w3.org/1999/xlink" x="0px" y="0px"
	 viewBox="0 0 88 88" enable-background="new 0 0 88 88" xml:space="preserve">
<g>
	<polygon fill="#696969" points="20,83 5,83 5,68 	"/>
	<line fill="none" stroke="#696969" stroke-width="7" stroke-miterlimit="10" x1="24.9" y1="63.1" x2="9.5" y2="78.5"/>
</g>
<g>
	<polygon fill="#696969" points="5,20 5,5 20,5 	"/>
	<line fill="none" stroke="#696969" stroke-width="7" stroke-miterlimit="10" x1="24.9" y1="24.9" x2="9.5" y2="9.5"/>
</g>
<g>
	<polygon fill="#696969" points="68,5 83,5 83,20 	"/>
	<line fill="none" stroke="#696969" stroke-width="7" stroke-miterlimit="10" x1="63.1" y1="24.9" x2="78.5" y2="9.5"/>
</g>
<g>
	<polygon fill="#696969" points="83,68 83,83 68,83 	"/>
	<line fill="none" stroke="#696969" stroke-width="7" stroke-miterlimit="10" x1="63.1" y1="63.1" x2="78.5" y2="78.5"/>
</g>
<path fill="#696969" d="M59,56.5H29c-2.8,0-5-2.2-5-5v-15c0-2.8,2.2-5,5-5h30c2.8,0,5,2.2,5,5v15C64,54.2,61.8,56.5,59,56.5z"/>
</svg>
