<?xml version="1.0" encoding="utf-8"?>
<!-- Generator: Adobe Illustrator 19.2.1, SVG Export Plug-In . SVG Version: 6.00 Build 0)  -->
<!DOCTYPE svg PUBLIC "-//W3C//DTD SVG 1.1//EN" "http://www.w3.org/Graphics/SVG/1.1/DTD/svg11.dtd">
<svg version="1.1" id="Layer_1" xmlns="http://www.w3.org/2000/svg" xmlns:xlink="http://www.w3.org/1999/xlink" x="0px" y="0px"
	 viewBox="0 0 30 28.37" enable-background="new 0 0 30 28.37" xml:space="preserve">
<g>
	<g>
		<rect x="13.354" y="6.696" fill="#4D4D4D" width="3.113" height="10.479"/>
		<polygon fill="#4D4D4D" points="13.372,17.085 15.111,14.739 20.744,19.16 19.005,21.507 		"/>
	</g>
	<path fill="#4D4D4D" d="M5.64,10.626c1.47-4.203,5.47-7.217,10.175-7.217c5.952,0,10.776,4.825,10.776,10.776
		c0,5.952-4.825,10.776-10.776,10.776c-2.976,0-5.67-1.206-7.62-3.156L5.45,23.869c2.589,2.77,6.275,4.501,10.365,4.501
		C23.649,28.37,30,22.019,30,14.185C30,6.351,23.649,0,15.815,0C9.55,0,4.234,4.061,2.356,9.694L5.64,10.626z"/>
	<polygon fill="#4D4D4D" points="2.278,14.279 0,6.885 8.901,11.161 	"/>
</g>
</svg>
