<?xml version="1.0" encoding="utf-8"?>
<!-- Generator: Adobe Illustrator 19.1.0, SVG Export Plug-In . SVG Version: 6.00 Build 0)  -->
<!DOCTYPE svg PUBLIC "-//W3C//DTD SVG 1.1//EN" "http://www.w3.org/Graphics/SVG/1.1/DTD/svg11.dtd">
<svg version="1.1" id="Layer_1" xmlns="http://www.w3.org/2000/svg" xmlns:xlink="http://www.w3.org/1999/xlink" x="0px" y="0px"
	 viewBox="0 0 57.3 72" enable-background="new 0 0 57.3 72" xml:space="preserve">
<g>
	<path fill="#1176B7" d="M3.3,6.8c0,0,12.2-4.8,25.6-4.8c13.4,0,25.6,4.8,25.6,4.8v36.9c0,0,0,4.7-8.7,12.4
		c-8.7,7.7-15.9,13.6-16.9,13.6c-1,0-17.1-13.6-17.1-13.6S3.3,49,3.3,43.8C3.3,33.1,3.3,6.8,3.3,6.8z"/>
	<path opacity="0.2" fill="#211F1F" d="M28.9,2c13.4,0,25.6,4.8,25.6,4.8v36.9c0,0,0,4.7-8.7,12.4c-8.7,7.7-15.9,13.6-16.9,13.6
		C28.9,62.5,28.9,4.3,28.9,2z"/>
	<path fill="none" d="M40.2,58.8"/>
	<polygon fill="#FFFFFF" points="10.2,10 20.3,10 29.2,25.1 19.2,43 9.2,43 19.2,25.1 	"/>
	<polygon fill="#FFFFFF" points="47.9,10 37.8,10 28.9,25.1 38.9,43 48.9,43 38.9,25.1 	"/>
</g>
</svg>
